<svg width="188" height="52" viewBox="0 0 188 52" fill="none" xmlns="http://www.w3.org/2000/svg">
<g clip-path="url(#clip0_2938_63)">
<path fill-rule="evenodd" clip-rule="evenodd" d="M39.2161 6.93318C40.6108 5.65912 42.8702 6.63792 42.8703 8.51621V37.8047C42.8703 38.1663 42.7172 38.5116 42.4481 38.7564L28.1737 51.7415C27.3362 52.5034 25.9831 51.9155 25.983 50.7898C25.983 51.9155 24.6299 52.5034 23.7924 51.7415L9.51791 38.7564C9.24884 38.5116 9.09575 38.1663 9.0957 37.8047V8.51621C9.09585 6.63792 11.3553 5.65912 12.75 6.93318L25.5629 18.6389C25.8307 18.8836 25.983 19.228 25.983 19.5887C25.9831 19.228 26.1354 18.8836 26.4032 18.6389L39.2161 6.93318ZM25.8395 21.8696C19.4087 21.8697 14.1952 27.0288 14.1952 33.3926C14.1952 39.7564 19.4086 44.9154 25.8395 44.9155C25.8874 44.9155 25.9352 44.9141 25.983 44.9135V44.927C26.028 44.9275 26.073 44.9286 26.1181 44.9286C32.5524 44.9286 37.7684 39.7669 37.7685 33.3996C37.7684 27.0324 32.5524 21.8704 26.1181 21.8703C26.073 21.8703 26.028 21.8712 25.983 21.8717C25.9352 21.8711 25.8874 21.8696 25.8395 21.8696Z" fill="white" fill-opacity="0.5"/>
<path d="M49.9111 10.5245C50.921 10.1889 51.9653 10.9345 51.9653 11.9911V41.6424C51.9653 43.1282 51.0027 44.446 49.5792 44.9084L27.6861 52.0203C26.8462 52.2931 25.9827 51.6724 25.9827 50.7957V44.0019C26.0006 44.002 26.0185 44.003 26.0365 44.003C32.1017 44.003 37.0185 39.1256 37.0185 33.1093C37.0185 27.0928 32.1017 22.2156 26.0365 22.2156C26.0185 22.2156 26.0006 22.2162 25.9827 22.2162V19.9C25.9827 19.0506 26.5298 18.2962 27.3417 18.0264L49.9111 10.5245Z" fill="white"/>
<path d="M2.05426 10.5245C1.04435 10.1889 0 10.9345 0 11.9911V41.6424C0 43.1282 0.962646 44.446 2.38614 44.9084L24.2793 52.0203C25.1192 52.2931 25.9826 51.6724 25.9827 50.7957V44.0019C25.9648 44.002 25.9468 44.003 25.9289 44.003C19.8637 44.003 14.9469 39.1256 14.9468 33.1093C14.9468 27.0928 19.8636 22.2156 25.9289 22.2156C25.9468 22.2156 25.9648 22.2162 25.9827 22.2162V19.9C25.9827 19.0506 25.4355 18.2962 24.6237 18.0264L2.05426 10.5245Z" fill="white"/>
<path d="M31.3944 33.1719C31.3947 33.3078 31.3596 33.4414 31.2924 33.5599C31.2253 33.6783 31.1283 33.7775 31.0111 33.8477L23.7448 38.2571C23.6223 38.3315 23.482 38.3721 23.3384 38.3747C23.1948 38.3774 23.053 38.3419 22.9278 38.2721C22.8038 38.2033 22.7005 38.103 22.6285 37.9815C22.5566 37.86 22.5185 37.7216 22.5183 37.5807V28.7631C22.5185 28.6221 22.5566 28.4838 22.6285 28.3623C22.7005 28.2408 22.8038 28.1405 22.9278 28.0717C23.053 28.0018 23.1948 27.9664 23.3384 27.969C23.482 27.9717 23.6223 28.0123 23.7448 28.0867L31.0111 32.496C31.1283 32.5663 31.2253 32.6655 31.2924 32.7839C31.3596 32.9023 31.3947 33.036 31.3944 33.1719Z" fill="white"/>
<path d="M29.3882 3.17297C29.389 3.26849 29.3599 3.36186 29.3052 3.44011C29.2504 3.51836 29.1726 3.5776 29.0826 3.6096L27.2359 4.28114L26.5647 6.1275C26.5316 6.21663 26.472 6.2935 26.394 6.34779C26.3159 6.40207 26.2231 6.43117 26.1281 6.43117C26.033 6.43117 25.9402 6.40207 25.8621 6.34779C25.7841 6.2935 25.7245 6.21663 25.6914 6.1275L25.0202 4.28085L23.1735 3.6096C23.0844 3.57652 23.0075 3.51695 22.9533 3.4389C22.899 3.36084 22.8699 3.26805 22.8699 3.17297C22.8699 3.0779 22.899 2.9851 22.9533 2.90705C23.0075 2.829 23.0844 2.76943 23.1735 2.73634L25.0202 2.0651L25.6914 0.218448C25.7245 0.129316 25.7841 0.0524447 25.8621 -0.00183952C25.9402 -0.0561238 26.033 -0.0852203 26.1281 -0.0852203C26.2231 -0.0852203 26.3159 -0.0561238 26.394 -0.00183952C26.472 0.0524447 26.5316 0.129316 26.5647 0.218448L27.2362 2.0651L29.0826 2.73634C29.1726 2.76834 29.2504 2.82758 29.3052 2.90583C29.3599 2.98409 29.389 3.07746 29.3882 3.17297Z" fill="white"/>
<path d="M35.6654 7.19697C35.6658 7.25268 35.6489 7.30715 35.617 7.3528C35.585 7.39844 35.5396 7.433 35.4871 7.45167L34.4099 7.8434L34.0184 8.92044C33.9991 8.97243 33.9643 9.01727 33.9188 9.04894C33.8732 9.08061 33.8191 9.09758 33.7637 9.09758C33.7082 9.09758 33.6541 9.08061 33.6085 9.04894C33.563 9.01727 33.5282 8.97243 33.5089 8.92044L33.1174 7.84323L32.0402 7.45167C31.9882 7.43237 31.9433 7.39762 31.9117 7.35209C31.88 7.30656 31.863 7.25243 31.863 7.19697C31.863 7.14151 31.88 7.08737 31.9117 7.04184C31.9433 6.99631 31.9882 6.96156 32.0402 6.94226L33.1174 6.55071L33.5089 5.47349C33.5282 5.4215 33.563 5.37666 33.6085 5.34499C33.6541 5.31333 33.7082 5.29635 33.7637 5.29635C33.8191 5.29635 33.8732 5.31333 33.9188 5.34499C33.9643 5.37666 33.9991 5.4215 34.0184 5.47349L34.4101 6.55071L35.4871 6.94226C35.5396 6.96093 35.585 6.99549 35.617 7.04113C35.6489 7.08678 35.6658 7.14125 35.6654 7.19697Z" fill="white"/>
<path d="M20.3954 7.19697C20.3958 7.25268 20.3789 7.30715 20.3469 7.3528C20.315 7.39844 20.2696 7.433 20.2171 7.45167L19.1399 7.8434L18.7483 8.92044C18.729 8.97243 18.6943 9.01727 18.6488 9.04894C18.6032 9.08061 18.5491 9.09758 18.4936 9.09758C18.4382 9.09758 18.384 9.08061 18.3385 9.04894C18.293 9.01727 18.2582 8.97243 18.2389 8.92044L17.8474 7.84323L16.7702 7.45167C16.7182 7.43237 16.6733 7.39762 16.6417 7.35209C16.61 7.30656 16.593 7.25243 16.593 7.19697C16.593 7.14151 16.61 7.08737 16.6417 7.04184C16.6733 6.99631 16.7182 6.96156 16.7702 6.94226L17.8474 6.55071L18.2389 5.47349C18.2582 5.4215 18.293 5.37666 18.3385 5.34499C18.384 5.31333 18.4382 5.29635 18.4936 5.29635C18.5491 5.29635 18.6032 5.31333 18.6488 5.34499C18.6943 5.37666 18.729 5.4215 18.7483 5.47349L19.1401 6.55071L20.2171 6.94226C20.2696 6.96093 20.315 6.99549 20.3469 7.04113C20.3789 7.08678 20.3958 7.14125 20.3954 7.19697Z" fill="white"/>
<path d="M65.0621 21.8541H68.1993L72.1351 32.5206L76.0708 21.8541H79.208L73.504 36H70.7661L65.0621 21.8541ZM79.2373 18.4317C79.2373 17.405 79.9789 16.6065 81.0626 16.6065C82.1464 16.6065 82.8879 17.405 82.8879 18.4317C82.8879 19.4585 82.1464 20.257 81.0626 20.257C79.9789 20.257 79.2373 19.4585 79.2373 18.4317ZM79.6937 36V21.8541C80.0644 22.0252 80.5778 22.1393 81.0626 22.1393C81.5475 22.1393 82.0608 22.0252 82.4316 21.8541V36H79.6937ZM94.7962 15.4657H97.5341V36H94.7962V33.7184C93.8836 35.2585 92.1153 36.2282 90.2045 36.2282C86.668 36.2282 83.8446 33.1195 83.8446 28.9271C83.8446 24.7346 86.668 21.626 90.2045 21.626C92.1153 21.626 93.8836 22.5956 94.7962 24.0787V15.4657ZM90.6893 33.7184C92.9424 33.7184 94.7962 31.5224 94.7962 28.9271C94.7962 26.3318 92.9424 24.1357 90.6893 24.1357C88.2366 24.1357 86.5825 26.3318 86.5825 28.9271C86.5825 31.5224 88.2366 33.7184 90.6893 33.7184ZM104.867 36.2282C101.501 36.2282 99.3909 34.3458 99.3909 30.0679V21.8541H102.129V29.8397C102.129 32.8058 103.583 33.7184 105.266 33.7184C107.148 33.7184 109.43 32.2069 109.43 29.0982V21.8541H112.168V36H109.43V33.6614C108.917 34.4314 107.548 36.2282 104.867 36.2282ZM127.269 36H123.618L117.23 29.526V36H114.492V15.4657H117.23V27.5866L123.162 21.8541H126.812L119.711 28.4707L127.269 36ZM126.636 31.9787C126.636 27.8148 131.085 27.1018 136.675 27.5581C136.675 25.7328 136.076 24.0216 133.196 24.0216C130.857 24.0216 129.916 25.5617 129.659 26.6455L127.092 25.961C127.834 23.2801 130.229 21.626 133.424 21.626C136.589 21.626 139.413 22.9949 139.413 28.1285V32.6347C139.413 33.9466 140.211 34.0606 140.782 33.8895V35.943C140.468 36.1141 139.983 36.2282 139.527 36.2282C138.072 36.2282 136.989 35.2014 136.846 33.3476C135.933 34.8877 134.507 36.2282 131.598 36.2282C128.775 36.2282 126.636 34.517 126.636 31.9787ZM129.374 31.8646C129.374 33.0339 130.372 34.0321 132.425 33.8325C134.85 33.6043 136.447 31.3227 136.675 29.583C133.053 29.0982 129.374 29.5545 129.374 31.8646ZM139.654 24.3639V22.5386C142.25 22.0823 142.849 21.0271 142.849 17.7473H145.13V21.8541H149.237V24.3639H145.13V31.5509C145.13 34.0036 147.954 33.7469 149.237 33.4902V36C148.61 36.1426 147.84 36.2282 147.241 36.2282C144.788 36.2282 142.392 35.4866 142.392 31.2087V24.3639H139.654ZM163.181 28.7274C163.181 29.1267 163.152 29.3834 163.095 29.7256H152.201C152.4 31.9787 154.026 33.7184 156.65 33.7184C158.56 33.7184 159.815 32.5206 160.443 31.0946L163.038 31.7791C162.268 33.6899 160.471 36.2282 156.593 36.2282C152.115 36.2282 149.491 32.9484 149.491 28.9271C149.491 24.6776 152.343 21.626 156.536 21.626C159.787 21.626 163.152 23.7079 163.181 28.7274ZM152.343 27.444H160.386C160.215 25.4762 158.789 24.0216 156.678 24.0216C153.969 24.0216 152.771 25.5902 152.343 27.444ZM165.938 36.2282C164.741 36.2282 163.885 35.344 163.885 34.1747C163.885 33.0339 164.741 32.1213 165.938 32.1213C167.136 32.1213 167.992 33.0339 167.992 34.1747C167.992 35.344 167.136 36.2282 165.938 36.2282ZM168.698 31.9787C168.698 27.8148 173.147 27.1018 178.737 27.5581C178.737 25.7328 178.138 24.0216 175.257 24.0216C172.919 24.0216 171.978 25.5617 171.721 26.6455L169.154 25.961C169.896 23.2801 172.291 21.626 175.486 21.626C178.651 21.626 181.475 22.9949 181.475 28.1285V32.6347C181.475 33.9466 182.273 34.0606 182.844 33.8895V35.943C182.53 36.1141 182.045 36.2282 181.589 36.2282C180.134 36.2282 179.05 35.2014 178.908 33.3476C177.995 34.8877 176.569 36.2282 173.66 36.2282C170.837 36.2282 168.698 34.517 168.698 31.9787ZM171.436 31.8646C171.436 33.0339 172.434 34.0321 174.487 33.8325C176.912 33.6043 178.509 31.3227 178.737 29.583C175.115 29.0982 171.436 29.5545 171.436 31.8646ZM183.548 18.4317C183.548 17.405 184.289 16.6065 185.373 16.6065C186.457 16.6065 187.198 17.405 187.198 18.4317C187.198 19.4585 186.457 20.257 185.373 20.257C184.289 20.257 183.548 19.4585 183.548 18.4317ZM184.004 36V21.8541C184.375 22.0252 184.888 22.1393 185.373 22.1393C185.858 22.1393 186.371 22.0252 186.742 21.8541V36H184.004Z" fill="white"/>
</g>
<defs>
<clipPath id="clip0_2938_63">
<rect width="188" height="52" fill="white"/>
</clipPath>
</defs>
</svg>
