<?xml version="1.0" encoding="UTF-8"?>
<svg xmlns="http://www.w3.org/2000/svg" width="146" height="76" viewBox="0 0 146 76" fill="none">
  <path d="M45.6356 68.2251L39.5547 0H106.445L100.364 68.2251L72.9257 75.9376" fill="#E34F26"></path>
  <path d="M72.5273 75.9999L94.6264 69.919L99.8174 11.4827H72.5273" fill="#EF652A"></path>
  <path d="M72.5276 36.8447H61.4039L60.6624 28.2424H72.5276V19.9368H72.3793H51.4668L51.6151 22.1615L53.6915 45.2987H72.5276V36.8447ZM72.5276 58.6471H72.3793L63.0354 56.1258L62.4421 49.4516H57.9927H54.1365L55.1747 62.6516L72.3793 67.3977H72.5276V58.6471Z" fill="#EBEBEB"></path>
  <path d="M72.3789 36.8447V45.2987H82.761L81.7228 56.1258L72.3789 58.6471V67.3977L89.5835 62.6516L89.7318 61.1685L91.6599 39.0695L91.9566 36.8447H89.5835H72.3789ZM72.3789 19.9368V25.1278V28.2424H92.6981L92.8465 26.4627L93.2914 22.1615L93.4397 19.9368H72.3789Z" fill="white"></path>
</svg>
