<svg width="146" height="76" viewBox="0 0 146 76" fill="none" xmlns="http://www.w3.org/2000/svg">
<g clip-path="url(#clip0_3799_144322)">
<path d="M98.9919 0H47.0079C39.8724 0 34.0879 5.78448 34.0879 12.92V62.9584C34.0879 70.0939 39.8724 75.8784 47.0079 75.8784H98.9919C106.127 75.8784 111.912 70.0939 111.912 62.9584V12.92C111.912 5.78448 106.127 0 98.9919 0Z" fill="#001E36"/>
<path d="M51.6118 53.2104V19.8502C51.6118 19.6071 51.7163 19.4848 51.9252 19.4848L52.2555 19.4838L52.8204 19.4776L53.6054 19.4621L56.2351 19.4065L59.0544 19.3543C60.0462 19.3371 61.0294 19.3281 62.004 19.3281C64.6486 19.3281 66.8761 19.6588 68.6864 20.3201C70.3194 20.8725 71.8087 21.7821 73.0458 22.9826C74.0945 24.0232 74.9049 25.279 75.4211 26.6632C75.9096 28.0104 76.157 29.433 76.1523 30.8659C76.1523 33.6508 75.5083 35.9479 74.2205 37.7572C72.9602 39.5235 71.2029 40.8729 69.1743 41.6349L68.9998 41.6988C66.8801 42.4897 64.5326 42.7754 61.958 42.7936L61.558 42.7944L60.9644 42.7912L60.6647 42.7872L60.3309 42.7792L60.1299 42.7713L60.0076 42.765L59.7069 42.754L59.3394 42.7466L58.786 42.7424C58.7457 42.7423 58.7046 42.7423 58.6628 42.7422V53.1583C58.6813 53.2877 58.6378 53.4182 58.5453 53.5107C58.4529 53.6031 58.3223 53.6466 58.1929 53.6281H51.9772C51.7334 53.6281 51.6118 53.4894 51.6118 53.2104ZM58.6628 25.7496V36.6303C59.1147 36.6654 59.5323 36.6828 59.9157 36.6825H61.6385C62.8269 36.6786 64.008 36.5016 65.1447 36.1576L65.3714 36.0866C66.4057 35.7794 67.3299 35.1814 68.0339 34.3638C68.6883 33.5922 69.0272 32.529 69.0507 31.1743L69.052 31.0226C69.0795 30.0127 68.8168 29.0161 68.2949 28.1511C67.7462 27.3147 66.9533 26.6676 66.0239 26.2978C64.8104 25.8261 63.5141 25.6041 62.2128 25.6452L61.5507 25.6472L61.133 25.6506L60.7344 25.6558L60.172 25.6668L59.7618 25.6784L59.5484 25.6863L59.2635 25.6995L59.021 25.7145L58.8828 25.7254L58.7634 25.7371C58.7451 25.7391 58.7275 25.7412 58.7108 25.7433L58.6628 25.7496ZM96.3377 34.6519C95.4267 34.1838 94.4606 33.8324 93.4623 33.6057L93.2314 33.5556C92.1327 33.3035 91.0113 33.1647 89.8848 33.1413L89.603 33.1379C88.9425 33.12 88.2828 33.1991 87.6452 33.3728C87.2394 33.4632 86.8787 33.6944 86.6272 34.0254C86.457 34.2902 86.3665 34.5982 86.3662 34.913C86.3757 35.2183 86.4858 35.5119 86.6794 35.7482C86.9566 36.0725 87.2898 36.344 87.6627 36.5499L87.7757 36.6097C88.5201 37.0105 89.2871 37.3679 90.0728 37.6799C91.825 38.2664 93.4992 39.0641 95.0586 40.0553C96.1209 40.7258 96.9999 41.6497 97.6168 42.744C98.1354 43.7802 98.3952 44.9267 98.3738 46.0853C98.405 47.6151 97.9678 49.1179 97.1209 50.3923C96.2141 51.6859 94.9546 52.6917 93.4924 53.2897C91.961 53.9624 90.0806 54.3101 87.851 54.3328L87.6191 54.334C86.2368 54.3479 84.8567 54.2269 83.4984 53.9728L83.2077 53.9163C82.0637 53.7065 80.9501 53.3558 79.8925 52.8721C79.675 52.7599 79.5364 52.5397 79.527 52.2977L79.527 46.6073C79.5142 46.4948 79.5644 46.3844 79.6576 46.3202C79.7494 46.2682 79.8638 46.2787 79.9447 46.3463C81.1938 47.0828 82.55 47.62 83.9646 47.9386C85.2115 48.2511 86.4904 48.4175 87.7757 48.4345C88.9936 48.4345 89.8898 48.2779 90.4644 47.9647C90.9944 47.7221 91.332 47.1902 91.3259 46.6073C91.3259 46.1554 91.0648 45.7204 90.5428 45.3021C90.3239 45.127 90.0101 44.9365 89.6014 44.7308L89.406 44.6347L89.1972 44.5365C89.1613 44.5199 89.1248 44.5033 89.0877 44.4866L88.8587 44.3851C88.8194 44.368 88.7795 44.3508 88.7391 44.3335L88.4898 44.2288C88.4472 44.2112 88.4039 44.1934 88.3601 44.1756L88.0907 44.0676C88.0446 44.0494 87.998 44.0311 87.9509 44.0128L87.6612 43.9015L87.3581 43.7881C85.7188 43.2175 84.1645 42.4272 82.7377 41.4388C81.7172 40.7291 80.8769 39.7904 80.284 38.6979C79.7706 37.6692 79.511 36.5324 79.527 35.3828C79.5241 34.0015 79.9036 32.6463 80.6233 31.4673C81.444 30.169 82.6225 29.1356 84.0169 28.4915C85.548 27.7263 87.4622 27.3435 89.7597 27.3429C91.1051 27.3321 92.4493 27.4281 93.7796 27.6301C94.7429 27.7523 95.6847 28.007 96.5782 28.3871C96.7219 28.4283 96.8379 28.5346 96.8914 28.6742C96.9267 28.8017 96.9443 28.9335 96.9437 29.0658V34.3387C96.951 34.4635 96.8914 34.5829 96.7871 34.6519C96.6456 34.7223 96.4793 34.7223 96.3377 34.6519Z" fill="#31A8FF"/>
</g>
<defs>
<clipPath id="clip0_3799_144322">
<rect width="77.824" height="76" fill="white" transform="translate(34.0879)"/>
</clipPath>
</defs>
</svg>
