<svg width="70" height="70" viewBox="0 0 70 70" fill="none" xmlns="http://www.w3.org/2000/svg">
<path d="M46.3794 22.5701C46.3094 24.6201 41.7994 27.6301 34.9194 27.3801C28.0294 27.3801 23.6094 24.6201 23.6094 22.5701" stroke="#2258E7" stroke-width="2" stroke-miterlimit="10"/>
<path d="M34.9192 48.92C43.4631 48.92 50.3892 41.9356 50.3892 33.32C50.3892 24.7043 43.4631 17.72 34.9192 17.72C26.3754 17.72 19.4492 24.7043 19.4492 33.32C19.4492 41.9356 26.3754 48.92 34.9192 48.92Z" stroke="#2258E7" stroke-width="2" stroke-miterlimit="10"/>
<path d="M34.8594 39.48C41.7494 39.48 46.1694 42.24 46.1694 44.29" stroke="#2258E7" stroke-width="2" stroke-miterlimit="10"/>
<path d="M23.5 44.1899C24 42.0699 27.98 39.2399 34.86 39.4799" stroke="#2258E7" stroke-width="2" stroke-miterlimit="10"/>
<path d="M34.2087 48.92C34.2087 48.92 24.6387 45.33 24.6387 33.32C24.6387 21.11 34.2087 17.72 34.2087 17.72" stroke="#2258E7" stroke-width="2" stroke-miterlimit="10"/>
<path d="M35.6289 48.92C35.6289 48.92 45.1989 45.33 45.1989 33.32C45.1989 21.11 35.6289 17.72 35.6289 17.72" stroke="#2258E7" stroke-width="2" stroke-miterlimit="10"/>
<path d="M50.0292 33.4199H19.1992" stroke="#2258E7" stroke-width="2" stroke-miterlimit="10"/>
<path d="M34.8398 17.73V48.89" stroke="#2258E7" stroke-width="2" stroke-miterlimit="10"/>
<path d="M35.0488 12.7C36.1534 12.7 37.0488 11.8045 37.0488 10.7C37.0488 9.59538 36.1534 8.69995 35.0488 8.69995C33.9443 8.69995 33.0488 9.59538 33.0488 10.7C33.0488 11.8045 33.9443 12.7 35.0488 12.7Z" stroke="#2258E7" stroke-width="1.2589" stroke-miterlimit="10"/>
<path d="M35.0879 15.85V12.47" stroke="#2258E7" stroke-width="2" stroke-miterlimit="10"/>
<path d="M57.7988 35.5098C58.9034 35.5098 59.7988 34.6143 59.7988 33.5098C59.7988 32.4052 58.9034 31.5098 57.7988 31.5098C56.6943 31.5098 55.7988 32.4052 55.7988 33.5098C55.7988 34.6143 56.6943 35.5098 57.7988 35.5098Z" stroke="#2258E7" stroke-width="1.2589" stroke-miterlimit="10"/>
<path d="M52.6387 33.5498H56.0287" stroke="#2258E7" stroke-width="2" stroke-miterlimit="10"/>
<path d="M51.9492 20.0798C53.0538 20.0798 53.9492 19.1844 53.9492 18.0798C53.9492 16.9753 53.0538 16.0798 51.9492 16.0798C50.8446 16.0798 49.9492 16.9753 49.9492 18.0798C49.9492 19.1844 50.8446 20.0798 51.9492 20.0798Z" stroke="#2258E7" stroke-width="1.2589" stroke-miterlimit="10"/>
<path d="M48.0488 21.4398L50.6288 19.2598" stroke="#2258E7" stroke-width="2" stroke-miterlimit="10"/>
<path d="M12.1992 35.3298C13.3038 35.3298 14.1992 34.4344 14.1992 33.3298C14.1992 32.2253 13.3038 31.3298 12.1992 31.3298C11.0946 31.3298 10.1992 32.2253 10.1992 33.3298C10.1992 34.4344 11.0946 35.3298 12.1992 35.3298Z" stroke="#2258E7" stroke-width="1.2589" stroke-miterlimit="10"/>
<path d="M17.3588 33.3799H13.9688" stroke="#2258E7" stroke-width="2" stroke-miterlimit="10"/>
<path d="M18.0488 19.9099C19.1534 19.9099 20.0488 19.0145 20.0488 17.9099C20.0488 16.8053 19.1534 15.9099 18.0488 15.9099C16.9443 15.9099 16.0488 16.8053 16.0488 17.9099C16.0488 19.0145 16.9443 19.9099 18.0488 19.9099Z" stroke="#2258E7" stroke-width="1.2589" stroke-miterlimit="10"/>
<path d="M21.9491 21.2698L19.3691 19.0798" stroke="#2258E7" stroke-width="2" stroke-miterlimit="10"/>
<path d="M48.1082 51.1799C48.1082 51.1799 47.5082 56.5599 43.8682 59.2599C40.2282 61.9599 34.9082 60.9699 34.9082 60.9699C34.9082 60.9699 35.5082 55.5899 39.1482 52.8899C42.7982 50.1899 48.1082 51.1799 48.1082 51.1799Z" stroke="#2258E7" stroke-width="2" stroke-miterlimit="10"/>
<path d="M21.6387 51.1799C21.6387 51.1799 22.2387 56.5599 25.8787 59.2599C29.5187 61.9599 34.8387 60.9699 34.8387 60.9699C34.8387 60.9699 34.2387 55.5899 30.5987 52.8899C26.9587 50.1899 21.6387 51.1799 21.6387 51.1799Z" stroke="#2258E7" stroke-width="2" stroke-miterlimit="10"/>
<path d="M34.959 61.2999V48.9199" stroke="#2258E7" stroke-width="2" stroke-miterlimit="10"/>
</svg>
