<?xml version="1.0" encoding="UTF-8"?>
<svg xmlns="http://www.w3.org/2000/svg" width="72" height="72" viewBox="0 0 72 72" fill="none">
  <g clip-path="url(#clip0_912_527)">
    <path d="M25.87 35.38C25.87 35.21 25.89 35.05 25.9 34.88H14.06C13.41 34.88 12.83 34.57 12.47 34.03C12.1 33.48 12.04 32.82 12.29 32.21C13.62 29.02 16.71 26.96 20.14 26.96H21.55C23.8 26.96 25.88 27.85 27.44 29.35C27.63 29.01 27.84 28.68 28.06 28.35C26.73 27.13 25.06 26.3 23.25 25.98C25.33 25.06 26.79 22.97 26.79 20.55C26.79 17.28 24.13 14.61 20.85 14.61C17.59 14.61 14.92 17.27 14.91 20.55C14.91 22.97 16.37 25.05 18.45 25.98C15.26 26.55 12.53 28.69 11.24 31.76C10.85 32.71 10.95 33.79 11.53 34.65C12.1 35.5 13.05 36.01 14.07 36.01H25.88V35.38H25.87ZM20.84 15.76C23.49 15.76 25.64 17.91 25.64 20.56C25.64 23.21 23.49 25.36 20.84 25.36C18.19 25.36 16.04 23.21 16.04 20.56C16.05 17.91 18.2 15.76 20.84 15.76Z" fill="#2258E7"></path>
    <path d="M36.6001 23.09C37.1501 23.01 37.7101 22.96 38.2901 22.96H39.9501C40.5201 22.96 41.0901 23.01 41.6401 23.09C43.8701 22.11 45.4301 19.89 45.4301 17.31C45.4301 13.84 42.5901 11 39.1201 11C35.6501 11 32.8101 13.84 32.8101 17.31C32.8101 19.89 34.3801 22.11 36.6001 23.09Z" fill="#2258E7"></path>
    <path d="M39.6401 39.66L40.1601 39.54C42.3501 39.04 48.3301 37.36 49.6801 35.67C49.9101 35.39 50.2401 35.24 50.6001 35.23C50.5201 29.44 45.7601 24.71 39.9501 24.71H38.2901C32.4301 24.71 27.6301 29.51 27.6301 35.37V39.18C27.6301 40.58 28.7701 41.72 30.1701 41.72H39.5101C39.5301 40.79 39.5801 40.22 39.5801 40.19L39.6401 39.66Z" fill="#2258E7"></path>
    <path d="M59.36 40.83C58.31 40.58 55.85 39.96 54.7 39.45C52.81 38.61 51.45 37.74 50.65 36.85C48.71 38.85 42.95 40.4 41.04 40.87C40.89 43.6 40.75 56.17 50.86 58.73C61.01 55.63 59.75 43.44 59.36 40.83ZM50.44 51.23C50.25 51.23 50.06 51.16 49.91 51.01L46.65 47.76C46.36 47.47 46.36 46.99 46.65 46.7C46.94 46.41 47.42 46.41 47.71 46.7L50.44 49.42L55.4 44.47C55.69 44.18 56.17 44.18 56.46 44.47C56.75 44.76 56.75 45.24 56.46 45.53L50.97 51.01C50.82 51.16 50.63 51.23 50.44 51.23Z" fill="#FF5E2C"></path>
  </g>
  <defs>
    <clipPath id="clip0_912_527">
      <rect width="48.63" height="47.74" fill="white" transform="translate(11 11)"></rect>
    </clipPath>
  </defs>
</svg>
